HIERARCHY
ROOT pelvis
{
	OFFSET 0.003123 -0.351407 0.012037
	CHANNELS 6 Xposition Yposition Zposition Zrotation Yrotation Xrotation 
	JOINT left_hip
	{
		OFFSET 0.058189 -0.092763 -0.026001
		CHANNELS 3 Zrotation Yrotation Xrotation
		JOINT left_knee
		{
			OFFSET 0.054695 -0.378753 -0.009396
			CHANNELS 3 Zrotation Yrotation Xrotation
			JOINT left_ankle
			{
				OFFSET -0.043453 -0.403059 -0.031876
				CHANNELS 3 Zrotation Yrotation Xrotation
				JOINT left_foot
				{
					OFFSET 0.047257 -0.057997 0.118216
					CHANNELS 3 Zrotation Yrotation Xrotation
					End Site
					{
						OFFSET 0.000000 0.000000 0.000000
					}
				}
			}
		}
	}
	JOINT right_hip
	{
		OFFSET -0.063267 -0.103908 -0.021250
		CHANNELS 3 Zrotation Yrotation Xrotation
		JOINT right_knee
		{
			OFFSET -0.044210 -0.362380 -0.016824
			CHANNELS 3 Zrotation Yrotation Xrotation
			JOINT right_ankle
			{
				OFFSET 0.015417 -0.410728 -0.020192
				CHANNELS 3 Zrotation Yrotation Xrotation
				JOINT right_foot
				{
					OFFSET -0.038812 -0.058328 0.119049
					CHANNELS 3 Zrotation Yrotation Xrotation
					End Site
					{
						OFFSET 0.000000 0.000000 0.000000
					}
				}
			}
		}
	}
	JOINT spine_1
	{
		OFFSET -0.002763 0.109891 -0.027618
		CHANNELS 3 Zrotation Yrotation Xrotation
		JOINT spine_2
		{
			OFFSET 0.009448 0.131853 -0.005940
			CHANNELS 3 Zrotation Yrotation Xrotation
			JOINT spine_3
			{
				OFFSET -0.011330 0.052235 0.028447
				CHANNELS 3 Zrotation Yrotation Xrotation
				JOINT neck
				{
					OFFSET -0.012164 0.165167 -0.031615
					CHANNELS 3 Zrotation Yrotation Xrotation
					JOINT head
					{
						OFFSET 0.024783 0.160452 0.020737
						CHANNELS 3 Zrotation Yrotation Xrotation
						End Site
						{
							OFFSET 0.000000 0.000000 0.000000
						}
					}
				}
				JOINT left_collar
				{
					OFFSET 0.046364 0.084944 -0.007220
					CHANNELS 3 Zrotation Yrotation Xrotation
					JOINT left_shoulder
					{
						OFFSET 0.119239 0.057728 -0.015461
						CHANNELS 3 Zrotation Yrotation Xrotation
						JOINT left_elbow
						{
							OFFSET 0.254123 -0.072151 -0.042459
							CHANNELS 3 Zrotation Yrotation Xrotation
							JOINT left_wrist
							{
								OFFSET 0.251987 0.023221 -0.002472
								CHANNELS 3 Zrotation Yrotation Xrotation
								JOINT left_index_1
								{
									OFFSET 0.101902 -0.008688 0.019351
									CHANNELS 3 Zrotation Yrotation Xrotation
									JOINT left_index_2
									{
										OFFSET 0.030149 -0.011154 0.001151
										CHANNELS 3 Zrotation Yrotation Xrotation
										JOINT left_index_3
										{
											OFFSET 0.006504 -0.021577 -0.002433
											CHANNELS 3 Zrotation Yrotation Xrotation
											End Site
											{
												OFFSET 0.000000 0.000000 0.000000
											}
										}
									}
								}
								JOINT left_middle_1
								{
									OFFSET 0.109398 -0.006328 -0.003981
									CHANNELS 3 Zrotation Yrotation Xrotation
									JOINT left_middle_2
									{
										OFFSET 0.026472 -0.015218 -0.004641
										CHANNELS 3 Zrotation Yrotation Xrotation
										JOINT left_middle_3
										{
											OFFSET 0.005022 -0.023347 -0.001911
											CHANNELS 3 Zrotation Yrotation Xrotation
											End Site
											{
												OFFSET 0.000000 0.000000 0.000000
											}
										}
									}
								}
								JOINT left_pinky_1
								{
									OFFSET 0.084047 -0.014539 -0.043750
									CHANNELS 3 Zrotation Yrotation Xrotation
									JOINT left_pinky_2
									{
										OFFSET 0.012124 -0.014448 -0.005375
										CHANNELS 3 Zrotation Yrotation Xrotation
										JOINT left_pinky_3
										{
											OFFSET 0.003798 -0.018853 0.000167
											CHANNELS 3 Zrotation Yrotation Xrotation
											End Site
											{
												OFFSET 0.000000 0.000000 0.000000
											}
										}
									}
								}
								JOINT left_ring_1
								{
									OFFSET 0.097444 -0.009268 -0.027345
									CHANNELS 3 Zrotation Yrotation Xrotation
									JOINT left_ring_2
									{
										OFFSET 0.023561 -0.016057 -0.001895
										CHANNELS 3 Zrotation Yrotation Xrotation
										JOINT left_ring_3
										{
											OFFSET 0.004257 -0.023548 0.000814
											CHANNELS 3 Zrotation Yrotation Xrotation
											End Site
											{
												OFFSET 0.000000 0.000000 0.000000
											}
										}
									}
								}
								JOINT left_thumb_1
								{
									OFFSET 0.040636 -0.017977 0.025611
									CHANNELS 3 Zrotation Yrotation Xrotation
									JOINT left_thumb_2
									{
										OFFSET 0.021637 -0.017639 0.011623
										CHANNELS 3 Zrotation Yrotation Xrotation
										JOINT left_thumb_3
										{
											OFFSET 0.024002 -0.008356 0.006548
											CHANNELS 3 Zrotation Yrotation Xrotation
											End Site
											{
												OFFSET 0.000000 0.000000 0.000000
											}
										}
									}
								}
							}
						}
					}
				}
				JOINT right_collar
				{
					OFFSET -0.047695 0.084339 -0.013400
					CHANNELS 3 Zrotation Yrotation Xrotation
					JOINT right_shoulder
					{
						OFFSET -0.102578 0.053524 -0.012669
						CHANNELS 3 Zrotation Yrotation Xrotation
						JOINT right_elbow
						{
							OFFSET -0.271150 -0.036492 -0.026467
							CHANNELS 3 Zrotation Yrotation Xrotation
							JOINT right_wrist
							{
								OFFSET -0.249267 -0.004533 -0.015325
								CHANNELS 3 Zrotation Yrotation Xrotation
								JOINT right_index_1
								{
									OFFSET -0.099881 -0.011783 0.019600
									CHANNELS 3 Zrotation Yrotation Xrotation
									JOINT right_index_2
									{
										OFFSET -0.030148 -0.011154 0.001151
										CHANNELS 3 Zrotation Yrotation Xrotation
										JOINT right_index_3
										{
											OFFSET -0.006505 -0.021577 -0.002432
											CHANNELS 3 Zrotation Yrotation Xrotation
											End Site
											{
												OFFSET 0.000000 0.000000 0.000000
											}
										}
									}
								}
								JOINT right_middle_1
								{
									OFFSET -0.107376 -0.009422 -0.003734
									CHANNELS 3 Zrotation Yrotation Xrotation
									JOINT right_middle_2
									{
										OFFSET -0.026472 -0.015218 -0.004641
										CHANNELS 3 Zrotation Yrotation Xrotation
										JOINT right_middle_3
										{
											OFFSET -0.005022 -0.023347 -0.001911
											CHANNELS 3 Zrotation Yrotation Xrotation
											End Site
											{
												OFFSET 0.000000 0.000000 0.000000
											}
										}
									}
								}
								JOINT right_pinky_1
								{
									OFFSET -0.082027 -0.017634 -0.043503
									CHANNELS 3 Zrotation Yrotation Xrotation
									JOINT right_pinky_2
									{
										OFFSET -0.012123 -0.014448 -0.005374
										CHANNELS 3 Zrotation Yrotation Xrotation
										JOINT right_pinky_3
										{
											OFFSET -0.003798 -0.018852 0.000167
											CHANNELS 3 Zrotation Yrotation Xrotation
											End Site
											{
												OFFSET 0.000000 0.000000 0.000000
											}
										}
									}
								}
								JOINT right_ring_1
								{
									OFFSET -0.095423 -0.012362 -0.027099
									CHANNELS 3 Zrotation Yrotation Xrotation
									JOINT right_ring_2
									{
										OFFSET -0.023561 -0.016057 -0.001895
										CHANNELS 3 Zrotation Yrotation Xrotation
										JOINT right_ring_3
										{
											OFFSET -0.004257 -0.023548 0.000816
											CHANNELS 3 Zrotation Yrotation Xrotation
											End Site
											{
												OFFSET 0.000000 0.000000 0.000000
											}
										}
									}
								}
								JOINT right_thumb_1
								{
									OFFSET -0.038613 -0.021074 0.025861
									CHANNELS 3 Zrotation Yrotation Xrotation
									JOINT right_thumb_2
									{
										OFFSET -0.021636 -0.017639 0.011623
										CHANNELS 3 Zrotation Yrotation Xrotation
										JOINT right_thumb_3
										{
											OFFSET -0.024004 -0.008353 0.006547
											CHANNELS 3 Zrotation Yrotation Xrotation
											End Site
											{
												OFFSET 0.000000 0.000000 0.000000
											}
										}
									}
								}
							}
						}
					}
				}
			}
		}
	}
}
MOTION
Frames: 7
Frame Time: 0.050000
0.010597 0.933043 -0.020531 3.482201 0.068401 -9.701382 -1.460114 1.941455 12.019558 -2.952612 -0.495241 8.824577 5.068119 -0.420390 -13.648701 0.000000 0.000000 0.000000 -10.646968 -0.072508 14.337670 8.015898 -0.403151 -0.454602 -1.684393 0.208111 -5.456071 0.000000 0.000000 0.000000 -5.805887 -0.471331 3.474376 -6.482516 1.020785 -9.156475 10.361918 -0.614881 20.656421 1.525751 0.354986 -3.778300 0.000000 0.000000 0.000000 -1.005946 -1.069093 0.435176 -56.952233 5.788568 -10.908935 -30.122226 -37.247178 14.405945 -1.309034 6.148183 11.017033 -12.352770 0.371040 0.248723 21.588429 -2.928559 -0.253422 0.000000 0.000000 0.000000 -4.870166 -6.213867 -4.249235 -0.873339 -1.549117 -7.818985 0.000000 0.000000 0.000000 23.828144 -12.041186 -5.663381 -31.205289 -9.001095 -21.940372 0.000000 0.000000 0.000000 -1.670047 -2.203778 -1.552864 -16.633940 -4.718218 -16.681082 0.000000 0.000000 0.000000 22.587667 23.092613 18.070993 -18.998387 -9.671591 3.429862 0.000000 0.000000 0.000000 2.263818 1.074970 0.327789 49.986165 0.596221 -5.936526 22.150141 36.906296 5.627708 14.717810 -2.601432 13.953843 15.335049 -3.228972 0.875686 -17.400726 0.424683 9.974638 0.000000 0.000000 0.000000 12.815200 1.826715 -3.468570 -3.085340 0.230819 0.257995 0.000000 0.000000 0.000000 -1.692207 7.334270 -6.524499 15.958037 1.228815 -8.049673 0.000000 0.000000 0.000000 15.286104 -1.718943 -1.092488 3.942738 1.322355 -9.515367 0.000000 0.000000 0.000000 -13.953508 -31.116152 31.522443 5.336250 17.016208 -3.367305 0.000000 0.000000 0.000000 
0.009802 0.945453 0.015106 4.117123 4.311056 -12.055904 -3.356661 1.500717 8.574160 0.358811 -2.242971 18.101137 2.544783 0.415005 -5.581949 0.000000 0.000000 0.000000 -6.586036 -0.766224 12.439635 0.637652 0.316817 12.844055 -3.542206 -4.872071 -4.587022 0.000000 0.000000 0.000000 -9.907212 -0.645866 7.134372 -6.233619 0.732219 -10.454958 12.992685 1.260898 23.878048 2.611152 0.630102 -5.951020 0.000000 0.000000 0.000000 -1.227615 -3.683698 1.655420 -58.310118 -5.237344 -9.915687 -25.385332 -31.809064 10.615886 -12.920779 8.533848 17.024302 -22.334885 0.247992 -0.811966 -28.905451 6.265159 -0.881973 0.000000 0.000000 0.000000 -26.426775 -2.969857 -7.238532 -32.967615 -2.678094 -15.328466 0.000000 0.000000 0.000000 -45.021131 -11.058550 -29.579952 -12.658296 -1.759577 1.242103 0.000000 0.000000 0.000000 -34.877855 -8.742763 -8.446952 -30.853457 -4.417898 -12.260570 0.000000 0.000000 0.000000 -0.870215 29.204591 31.729991 25.739067 -6.260196 -12.995500 0.000000 0.000000 0.000000 4.738148 2.846565 1.307338 51.365697 4.668091 -4.145998 17.398454 35.093237 4.283675 28.089025 -6.601982 19.648448 10.181980 -14.764790 5.981009 6.365281 -8.397677 8.385775 0.000000 0.000000 0.000000 20.804654 -0.776716 -4.356169 12.731507 -1.395665 -5.896818 0.000000 0.000000 0.000000 -0.134910 25.268893 -30.915645 7.930564 -2.173049 14.348032 0.000000 0.000000 0.000000 19.217531 12.416476 -8.877786 13.579021 -1.663379 0.243168 0.000000 0.000000 0.000000 -16.465174 -40.103797 46.736953 -6.737453 18.530549 -9.467179 0.000000 0.000000 0.000000 
-0.002564 0.934654 0.026985 3.817181 4.243706 -10.482874 -2.003783 1.226997 7.519455 1.140587 -2.026150 15.239711 1.992764 0.888263 -3.693931 0.000000 0.000000 0.000000 -5.169228 -0.532334 7.698430 0.816347 0.414195 19.547498 -5.000093 -6.299961 -8.178312 0.000000 0.000000 0.000000 -7.484837 -0.572073 12.701990 -6.446907 0.177296 -12.933165 9.915081 0.472022 25.251493 4.964568 0.884954 -8.919288 0.000000 0.000000 0.000000 -0.618386 -4.853123 2.290507 -61.326471 -14.840736 -7.782259 -15.571080 -27.620317 6.642562 -22.132169 13.567718 19.091075 11.030679 10.496929 7.004545 -88.942656 28.567348 -6.671639 0.000000 0.000000 0.000000 -48.344051 35.482425 0.074122 -59.272133 -20.622667 -31.040013 0.000000 0.000000 0.000000 -97.449545 44.203323 -41.726506 -10.514781 -10.060510 -20.522847 0.000000 0.000000 0.000000 -75.709122 17.529449 -18.309354 -22.033150 -13.657318 -25.309169 0.000000 0.000000 0.000000 -21.613166 43.518876 43.020792 80.421448 19.180142 -15.302722 0.000000 0.000000 0.000000 0.500600 4.160863 2.127019 60.043068 14.453340 -0.560277 14.064041 27.974885 2.492990 27.368631 -1.238153 28.555264 8.791958 -39.862466 21.486634 63.214275 -2.212040 -18.482620 0.000000 0.000000 0.000000 33.024937 -16.787249 -1.851802 63.721706 7.320173 -27.096558 0.000000 0.000000 0.000000 18.969685 53.303218 -60.811201 -0.279003 7.554663 26.560391 0.000000 0.000000 0.000000 41.078086 30.212489 -15.507699 35.787672 1.932526 -12.316581 0.000000 0.000000 0.000000 -9.929228 -45.052599 51.937674 -27.326151 16.017656 -19.760063 0.000000 0.000000 0.000000 
0.002206 0.928933 0.007187 2.547363 2.330113 -6.412562 0.775736 0.725944 5.372454 -1.969176 -0.702961 9.050003 2.350415 0.510165 -5.162082 0.000000 0.000000 0.000000 -4.380418 -0.413771 6.349724 1.016347 0.239741 11.252773 -4.895577 -4.606779 -10.280266 0.000000 0.000000 0.000000 -1.784074 -0.426665 6.260272 -7.406004 0.323109 -13.571806 7.822642 -0.457857 27.260880 4.511554 0.563101 -7.224723 0.000000 0.000000 0.000000 -6.625264 -0.522093 -0.480037 -58.540977 -11.840445 -8.040306 -12.068284 -29.386379 6.223719 -19.702838 9.453681 18.668067 -13.187058 9.350412 3.509691 -57.377488 18.410159 -0.905961 0.000000 0.000000 0.000000 -24.223772 14.574113 0.521785 -57.217367 1.240695 -13.419984 0.000000 0.000000 0.000000 -56.465826 25.446748 -24.471057 -24.284138 -8.689481 -4.243344 0.000000 0.000000 0.000000 -40.867983 15.631473 -3.709366 -41.730938 -5.574472 -12.829946 0.000000 0.000000 0.000000 2.059543 27.675228 32.054469 28.250640 -10.992080 -16.940470 0.000000 0.000000 0.000000 -0.377740 5.708389 2.969867 61.325518 15.220087 -0.702187 12.371418 28.415481 2.132754 12.169633 -1.573785 19.597948 24.715942 -8.094701 1.499461 36.348171 -18.748480 8.142743 0.000000 0.000000 0.000000 32.273886 0.998322 -7.138339 44.407829 -5.445003 -6.132855 0.000000 0.000000 0.000000 49.263577 32.261640 -35.602520 9.353646 -5.064573 11.684622 0.000000 0.000000 0.000000 39.306888 16.964014 -9.555968 37.785129 2.483992 -9.074756 0.000000 0.000000 0.000000 -10.000569 -40.089791 44.663668 -17.238043 18.321801 -14.577248 0.000000 0.000000 0.000000 
0.006799 0.917852 0.004547 0.969249 1.928980 -6.945172 3.541754 0.318882 3.307652 -4.732126 -0.611607 13.697359 4.343044 1.636711 -9.110494 0.000000 0.000000 0.000000 -5.035286 -0.332768 6.017834 4.560795 -0.315035 12.625650 -5.546443 -4.133243 -13.475643 0.000000 0.000000 0.000000 -0.158804 -0.451943 6.707911 -8.045267 0.074368 -15.346389 8.496932 -1.049855 29.064206 2.210829 0.989698 -8.243624 0.000000 0.000000 0.000000 -4.736728 -3.015523 1.128690 -60.921680 -7.811699 -9.170763 -15.394052 -34.521394 8.564620 -6.234595 4.752520 13.483158 -20.084401 1.331503 0.265587 -20.858866 14.875909 16.137321 0.000000 0.000000 0.000000 -17.904412 0.537834 -3.315963 -41.167989 2.951441 -6.349238 0.000000 0.000000 0.000000 -6.591191 2.934979 -0.496538 -61.863620 -15.142687 -22.111559 0.000000 0.000000 0.000000 -19.642483 2.429346 -1.336078 -56.356896 -7.347623 -12.446964 0.000000 0.000000 0.000000 10.847001 33.224399 35.067183 6.522157 -21.190678 -10.059814 0.000000 0.000000 0.000000 1.359933 3.429948 1.714914 59.729569 12.958024 -2.024948 15.281315 32.164636 3.273600 10.436939 -3.312399 25.121146 16.834194 -5.459406 1.244372 43.451593 -19.141457 3.774572 0.000000 0.000000 0.000000 20.176663 3.256452 -5.649335 65.936540 0.372484 -17.380999 0.000000 0.000000 0.000000 -10.049701 72.442982 -50.948801 18.682237 -10.251595 -43.355140 0.000000 0.000000 0.000000 24.407467 20.705797 -9.779627 59.465779 11.875254 -24.916853 0.000000 0.000000 0.000000 -5.297688 -36.737148 39.468963 -21.737484 17.805046 -17.129328 0.000000 0.000000 0.000000 
0.013954 0.920028 -0.003372 -0.422489 2.116908 -6.802260 4.965359 0.440649 5.289079 -5.160079 -0.194548 8.847835 3.820171 0.571021 -8.859898 0.000000 0.000000 0.000000 -3.897630 -0.451658 6.260021 4.468840 -0.292317 10.859234 -5.058059 -4.060343 -11.723285 0.000000 0.000000 0.000000 0.565080 -0.463108 6.831329 -8.109035 0.099827 -15.371821 9.095868 -1.296054 28.944358 1.641709 0.820725 -6.837584 0.000000 0.000000 0.000000 -6.172656 -3.043461 1.033518 -59.064169 -11.178986 -8.224029 -16.513294 -31.695524 8.086785 -7.108783 2.466433 17.247199 -18.836229 3.324046 0.626859 -17.436287 15.540553 17.943157 0.000000 0.000000 0.000000 -18.649828 3.626850 -2.477566 -41.037040 6.090239 -3.026680 0.000000 0.000000 0.000000 -14.286434 -7.548269 -11.033518 -59.312324 -11.569492 -18.613654 0.000000 0.000000 0.000000 -22.339032 0.345142 -2.875467 -52.386079 -0.481921 -4.802147 0.000000 0.000000 0.000000 8.150021 33.369206 35.141135 8.835403 -20.908276 -11.243593 0.000000 0.000000 0.000000 4.187428 0.884731 0.129283 60.409577 14.632863 -1.374986 11.577803 28.721804 2.023758 9.244594 -7.082966 26.889057 24.673056 -11.620202 2.054774 59.845497 -32.258218 4.683714 0.000000 0.000000 0.000000 26.859414 -7.630877 -3.391806 72.987219 -5.640359 -12.168909 0.000000 0.000000 0.000000 163.673172 62.856114 146.758242 30.158862 -19.223095 -103.821582 0.000000 0.000000 0.000000 38.185505 8.969656 -7.820778 69.441914 10.010304 -17.524907 0.000000 0.000000 0.000000 1.705520 -38.926341 40.778139 -43.311668 9.782891 -26.104345 0.000000 0.000000 0.000000 
0.005445 0.915918 -0.000732 0.078892 0.314691 -7.472256 4.252611 0.683773 6.796133 -4.163416 -0.267465 8.275334 4.832641 2.318688 -9.965654 0.000000 0.000000 0.000000 -4.724447 -0.405164 6.868492 5.454463 -0.404146 11.144537 -5.154743 -2.325308 -13.903405 0.000000 0.000000 0.000000 -0.234882 -0.598307 8.605342 -8.182494 -0.073293 -15.810894 8.916471 -1.147571 28.339498 3.141387 0.447991 -5.856692 0.000000 0.000000 0.000000 -5.675894 -4.822766 2.126772 -58.875353 -9.590202 -8.340400 -16.253584 -34.930092 8.952716 -4.615409 2.635264 14.176829 -21.211603 2.814603 0.522269 -18.722960 12.153796 13.891768 0.000000 0.000000 0.000000 -20.671547 2.255043 -3.379650 -32.379541 3.146464 -3.821991 0.000000 0.000000 0.000000 -8.598643 -9.506483 -11.676195 -57.275405 -9.701856 -14.628933 0.000000 0.000000 0.000000 -23.459675 2.127399 -2.215097 -46.290433 -6.400898 -13.062740 0.000000 0.000000 0.000000 5.297439 34.939752 35.637012 7.972705 -18.321942 -9.828493 0.000000 0.000000 0.000000 4.130936 1.595942 0.484431 60.475029 13.931209 -1.966065 10.378203 29.286061 1.810228 9.736123 -3.180054 21.614624 21.086355 -5.967663 1.004536 37.480440 -14.621308 4.165615 0.000000 0.000000 0.000000 18.871622 2.885626 -5.216159 59.485092 1.039480 -16.463092 0.000000 0.000000 0.000000 -3.298502 43.110811 -25.243844 44.906821 24.442797 -54.214551 0.000000 0.000000 0.000000 18.114036 13.326710 -7.695538 63.263246 14.381297 -24.281528 0.000000 0.000000 0.000000 -3.832622 -33.698525 35.846061 -18.318226 14.961088 -13.689120 0.000000 0.000000 0.000000 
